<?xml version="1.0" standalone="no"?>
<!DOCTYPE svg PUBLIC "-//W3C//DTD SVG 20010904//EN"
 "http://www.w3.org/TR/2001/REC-SVG-20010904/DTD/svg10.dtd">
<svg version="1.0" xmlns="http://www.w3.org/2000/svg"
 width="896.000000pt" height="896.000000pt" viewBox="0 0 896.000000 896.000000"
 preserveAspectRatio="xMidYMid meet">
<metadata>
Created by potrace 1.14, written by Peter Selinger 2001-2017
</metadata>
<g transform="translate(0.000000,896.000000) scale(0.100000,-0.100000)"
fill="#000000" stroke="none">
<path d="M830 8935 c14 -8 34 -14 45 -14 13 0 8 5 -15 14 -46 18 -61 18 -30 0z"/>
<path d="M933 8933 c9 -2 23 -2 30 0 6 3 -1 5 -18 5 -16 0 -22 -2 -12 -5z"/>
<path d="M1009 8901 c17 -16 31 -33 31 -38 0 -11 79 -37 87 -30 2 3 -10 8 -28
12 -19 4 -47 23 -67 46 -20 22 -40 39 -45 39 -5 0 5 -13 22 -29z"/>
<path d="M2 8879 c3 -20 89 -60 328 -152 l64 -25 -52 -26 c-28 -14 -56 -34
-61 -44 -15 -27 -5 -94 15 -109 26 -19 84 -16 127 7 46 25 50 25 42 -1 -4 -12
-8 -31 -10 -42 -2 -12 -6 -33 -9 -47 -13 -52 -35 -239 -41 -345 -7 -108 -19
-144 -49 -145 -6 -1 -28 -16 -49 -35 -42 -36 -68 -106 -60 -160 2 -17 5 -36 5
-42 1 -7 6 -13 11 -13 6 0 8 -2 5 -5 -7 -7 59 -76 75 -79 57 -10 60 -15 60
-101 l0 -40 -51 0 c-29 0 -52 -3 -52 -6 0 -3 -6 -6 -12 -6 -23 -1 -43 -8 -50
-18 -4 -5 -11 -10 -15 -10 -18 -1 -71 -39 -66 -48 3 -6 1 -7 -5 -3 -7 4 -12 1
-12 -8 0 -10 -6 -13 -17 -9 -10 4 -14 2 -10 -4 4 -6 -1 -17 -10 -24 -10 -8
-14 -9 -10 -2 4 6 3 14 -2 17 -11 7 -9 -13 2 -31 5 -7 4 -13 -2 -13 -5 0 -8
-9 -6 -19 2 -11 -3 -25 -11 -32 -8 -6 -14 -23 -14 -37 0 -24 -1 -25 -13 -7
-11 14 -16 15 -22 5 -6 -10 -9 -9 -16 1 -6 9 -8 -14 -6 -58 2 -40 7 -76 10
-80 4 -3 7 -13 7 -22 0 -14 -1 -14 -10 -1 -6 10 -10 -1274 -10 -3522 l0 -3538
985 0 985 0 0 173 c0 196 -16 558 -30 691 -5 50 -8 91 -6 93 5 5 140 -318 182
-435 20 -56 39 -101 41 -98 9 9 -20 124 -62 241 -73 202 -166 570 -214 845
-66 377 -91 829 -72 1260 23 488 72 802 183 1165 27 89 35 105 76 143 43 41
157 122 171 122 3 0 6 -82 6 -183 l0 -184 38 -58 c22 -31 56 -76 77 -99 34
-37 42 -58 83 -206 33 -124 43 -177 40 -212 -6 -59 19 -138 57 -182 17 -19 47
-84 75 -161 26 -72 65 -175 87 -229 39 -98 52 -172 84 -476 7 -61 74 -204 238
-512 l94 -176 -68 -174 c-65 -166 -207 -590 -287 -860 -21 -70 -41 -128 -44
-128 -3 0 -13 25 -23 56 -10 31 -19 54 -22 52 -2 -3 5 -31 16 -63 21 -60 27
-120 11 -111 -5 3 -12 23 -15 43 -11 60 -68 274 -73 270 -2 -2 6 -44 18 -93
49 -204 63 -324 39 -324 -10 0 -79 76 -119 132 -19 27 -36 48 -38 48 -9 0 36
-66 95 -141 l62 -79 -20 -72 c-11 -40 -20 -74 -20 -75 0 -2 101 -3 225 -3 172
0 227 3 230 13 2 6 27 91 55 187 75 254 171 540 219 653 23 54 46 110 52 124
9 25 15 18 110 -127 162 -247 393 -566 567 -782 l54 -68 70 0 69 0 -61 78
c-194 243 -466 622 -632 878 -124 193 -335 551 -478 814 -73 135 -153 277
-177 317 -48 80 -52 98 -23 113 19 10 24 3 70 -92 70 -149 175 -337 352 -633
101 -170 162 -281 173 -319 14 -51 27 -70 87 -130 39 -39 108 -125 153 -192
45 -67 130 -186 189 -266 119 -162 174 -207 299 -248 52 -17 67 -26 67 -41 0
-23 3 -23 -50 -4 -49 17 -60 18 -79 6 -32 -20 108 -154 141 -135 3 2 5 82 3
177 l-4 172 14 -165 c7 -91 14 -180 14 -197 1 -38 21 -46 21 -9 0 13 5 26 10
28 7 2 5 16 -5 40 -17 41 -20 78 -6 78 13 0 109 -81 126 -107 9 -14 36 -29 71
-39 90 -26 140 -52 173 -89 l30 -35 247 0 246 0 -34 42 c-183 226 -505 656
-696 929 -235 339 -685 1030 -685 1054 -1 32 236 562 379 848 173 346 299 561
522 892 198 294 290 408 571 715 244 266 249 270 525 461 71 49 135 89 143 89
8 0 64 -32 125 -71 62 -39 132 -81 156 -93 l45 -21 -6 -244 c-4 -146 -11 -249
-17 -256 -7 -8 -7 -14 -1 -17 8 -2 -14 -746 -64 -2209 l-7 -197 -39 -12 c-21
-7 -55 -27 -75 -45 l-35 -32 -5 -189 c-3 -104 -7 -212 -10 -240 l-5 -50 -66 8
c-65 9 -130 0 -240 -33 -36 -11 -54 -47 -73 -146 -14 -72 -12 -78 65 -164 30
-34 55 -68 55 -75 0 -12 -20 -20 -105 -39 -16 -3 -46 -24 -66 -46 l-37 -40 3
-91 c4 -89 5 -92 40 -128 32 -33 42 -37 118 -47 45 -5 98 -17 117 -25 34 -15
32 -15 -72 -14 -104 1 -107 0 -136 -27 -31 -30 -52 -102 -52 -182 0 -34 6 -47
38 -78 21 -20 46 -37 55 -37 13 0 17 -9 17 -34 0 -18 3 -61 6 -95 6 -50 10
-61 25 -61 17 0 18 6 13 58 -9 84 -2 87 126 53 188 -51 378 -95 454 -105 64
-8 51 9 -47 58 -55 28 -103 42 -202 60 -117 22 -195 40 -335 78 -103 29 -125
70 -94 177 16 54 24 65 59 85 40 22 46 22 206 15 90 -4 200 -12 243 -18 56 -7
99 -7 145 0 36 6 93 14 126 18 33 3 55 9 49 13 -36 23 -214 50 -394 58 -282
14 -381 29 -426 66 -33 27 -36 34 -40 93 -3 35 -7 67 -9 72 -7 10 29 47 75 80
40 28 87 33 425 48 180 8 222 13 292 34 91 28 134 48 116 54 -6 2 -25 -3 -42
-11 -41 -22 -114 -20 -218 5 -61 15 -128 23 -218 25 -71 1 -145 8 -164 13 -57
17 -46 5 26 -30 37 -19 68 -38 68 -44 0 -18 -63 -17 -102 2 -21 9 -68 47 -105
84 -62 60 -68 70 -68 106 0 47 23 119 47 145 12 14 31 18 77 18 34 0 77 4 96
8 37 9 298 -10 390 -27 30 -6 109 -10 175 -10 176 2 172 4 313 -134 157 -155
207 -253 231 -460 21 -171 22 -197 9 -197 -9 0 -9 -3 0 -12 17 -17 15 -163 -4
-263 -8 -44 -16 -93 -19 -110 -3 -16 -7 -38 -10 -47 -3 -10 -8 -27 -11 -38 -5
-20 -1 -20 209 -20 l215 0 6 31 c3 17 6 53 6 80 0 46 2 49 25 49 14 0 25 4 25
9 0 5 3 18 6 28 5 17 5 17 -10 -1 -19 -23 -35 -14 -28 19 3 18 11 25 28 25 13
0 24 5 24 10 0 6 -7 10 -15 10 -23 0 -18 19 14 51 39 38 56 38 36 -1 -33 -63
-77 -310 -56 -310 6 0 12 19 12 43 1 23 5 56 9 72 6 25 8 27 15 12 4 -10 5
-36 1 -57 -5 -32 -3 -40 9 -40 15 0 32 26 46 69 7 25 7 25 8 3 1 -12 -6 -33
-14 -46 -17 -25 -11 -56 10 -56 16 0 25 35 19 70 -4 17 0 31 10 39 14 12 16 9
16 -22 0 -20 5 -39 11 -42 6 -4 14 -17 19 -29 l9 -21 0 23 c1 27 21 30 21 2 0
-20 7 -20 340 -20 187 0 340 4 340 8 0 40 -60 172 -116 254 -102 151 -182 222
-321 285 l-78 34 55 -6 c30 -3 120 -22 199 -41 79 -19 146 -33 148 -30 2 2
-43 16 -99 31 -57 15 -123 33 -148 39 l-45 13 95 32 c80 27 88 31 48 27 -26
-3 -75 -17 -109 -31 -62 -25 -177 -36 -165 -16 4 5 46 33 96 62 49 30 87 55
85 57 -5 5 -61 -25 -138 -74 -68 -44 -120 -55 -183 -38 l-22 6 26 61 c14 34
48 95 75 135 64 93 209 248 256 271 66 34 284 99 421 126 109 22 172 28 333
32 l197 5 0 258 0 258 -77 8 c-144 13 -481 -34 -510 -72 -7 -10 -13 -12 -18
-5 -3 6 -17 8 -31 5 -29 -7 -30 -1 -10 117 8 46 17 129 19 184 l6 100 -14 -93
c-17 -111 -64 -325 -73 -333 -4 -3 -47 -21 -97 -39 -186 -70 -353 -163 -553
-312 -70 -52 -88 -62 -75 -41 10 15 68 100 129 189 61 89 133 194 159 235 26
41 54 84 63 97 8 12 12 22 8 22 -3 0 -25 -29 -49 -65 -24 -36 -64 -87 -88
-113 -25 -26 -91 -105 -147 -177 -57 -71 -109 -137 -115 -145 -7 -8 -38 -51
-70 -95 -32 -44 -101 -124 -154 -178 -109 -110 -110 -110 -120 -1 -3 36 -12
72 -19 79 -8 7 -11 20 -8 29 3 8 1 22 -4 32 -15 27 -23 -119 -12 -216 13 -111
13 -111 -12 -70 -19 32 -99 160 -104 168 -1 2 -25 9 -52 15 -39 9 -63 24 -106
65 -31 29 -56 58 -56 64 0 6 24 73 54 147 30 75 90 237 134 361 44 124 124
342 177 485 174 465 210 596 171 611 -21 8 -66 -19 -113 -68 -49 -51 -213
-275 -213 -291 0 -15 6 -7 76 88 139 192 220 273 245 248 17 -17 -9 -96 -204
-613 -52 -140 -129 -347 -170 -460 -85 -232 -136 -363 -167 -433 l-21 -47 -32
24 c-18 13 -41 26 -52 28 -16 3 -20 11 -18 43 4 104 100 841 119 910 4 16 3
17 -5 5 -11 -18 -42 -180 -91 -479 -10 -62 -21 -116 -24 -119 -3 -3 -6 32 -6
77 0 72 -3 86 -24 114 l-25 32 19 95 c24 125 108 445 180 685 140 467 301 861
508 1240 96 176 117 213 149 253 48 59 69 56 216 -24 141 -76 231 -138 275
-188 78 -90 157 -263 282 -621 34 -99 76 -218 92 -265 34 -97 52 -124 62 -92
13 41 -188 585 -310 837 -54 113 -64 126 -164 225 -58 58 -127 121 -153 140
-42 31 -47 38 -42 65 4 20 -3 45 -21 81 -25 50 -28 52 -88 67 -125 31 -176 49
-185 65 -5 10 -21 79 -35 155 -54 281 -105 451 -173 571 -80 142 -248 327
-467 515 l-108 94 6 271 c4 149 9 296 11 326 2 30 7 161 10 290 3 129 7 278
10 330 3 52 7 183 10 290 3 107 8 252 11 323 l6 127 272 -1 c149 -1 300 -4
335 -8 l65 -6 13 -79 c7 -44 18 -85 24 -93 14 -16 81 -17 97 -1 14 14 15 73 3
134 l-8 41 356 7 c445 8 1045 26 1089 32 17 3 32 10 32 15 0 7 -30 9 -87 5
-49 -3 -169 -8 -268 -11 -99 -3 -231 -8 -293 -10 -61 -3 -279 -5 -483 -5
l-371 -1 8 -52 c4 -29 8 -72 8 -97 1 -42 -1 -45 -28 -48 -40 -5 -46 8 -70 159
l-6 36 -433 6 c-237 4 -511 11 -607 17 -427 23 -612 31 -616 27 -2 -2 -12 -38
-23 -81 -22 -88 -34 -106 -68 -106 -33 0 -44 34 -28 90 7 25 15 59 18 76 l6
31 -97 7 c-411 29 -497 35 -499 32 -2 -1 -6 -104 -9 -227 -5 -193 -4 -231 10
-263 20 -49 20 -63 -1 -69 -12 -3 -9 -5 8 -6 23 -1 31 -13 72 -111 62 -145 63
-199 10 -368 -38 -120 -45 -181 -28 -270 l8 -44 -79 -80 c-91 -92 -135 -123
-88 -62 75 96 50 86 -98 -42 -149 -128 -150 -129 -216 -179 -28 -21 -52 -41
-52 -43 0 -7 67 38 228 152 79 55 51 18 -91 -122 -149 -146 -267 -245 -322
-272 -60 -29 -169 -46 -200 -32 -14 6 -25 18 -25 27 0 8 -4 15 -9 15 -5 0 -11
7 -13 16 -2 9 -37 28 -88 48 -119 45 -335 172 -457 270 -55 43 -63 54 -65 85
l-1 36 -4 -32 c-4 -34 -9 -38 -31 -25 -8 6 -10 22 -6 54 l6 46 96 -59 c52 -32
100 -56 105 -52 6 3 7 1 4 -4 -4 -6 7 -16 24 -23 17 -7 59 -31 92 -54 34 -22
69 -41 77 -43 8 -1 25 -5 38 -9 13 -4 22 -2 22 5 0 6 -6 11 -12 11 -9 0 -9 3
1 9 12 8 11 13 -5 33 -11 14 -26 22 -34 20 -13 -5 -13 -3 -1 12 8 9 10 16 5
15 -21 -4 -34 2 -34 15 0 9 -26 23 -67 37 -38 12 -74 26 -81 32 -34 27 -189
278 -206 335 -15 46 31 23 95 -48 34 -39 74 -78 88 -87 14 -9 -7 19 -48 62
-41 43 -70 80 -63 83 6 2 37 -2 69 -8 32 -6 110 -14 173 -16 l116 -5 2 25 c1
14 -3 26 -8 26 -6 0 -9 3 -9 8 4 23 -3 33 -18 28 -10 -3 -76 -8 -148 -10 -71
-3 -149 -8 -171 -12 -41 -6 -42 -6 -82 47 -22 30 -56 80 -76 111 l-36 57 48
15 c37 12 40 14 12 10 -19 -3 -44 -8 -56 -11 -16 -3 -24 3 -35 29 -8 18 -13
36 -11 41 1 4 -2 7 -7 7 -5 0 -11 12 -15 28 -3 15 -8 37 -12 48 -5 20 0 22 78
33 112 16 174 34 298 88 300 130 315 132 532 76 138 -36 149 -37 308 -37 106
1 206 7 278 19 62 10 115 15 117 13 3 -3 8 -38 11 -80 10 -109 6 -112 -118
-127 -145 -18 -148 -20 -20 -16 109 3 112 3 112 -18 0 -42 -34 -136 -97 -272
-3 -5 4 1 16 15 11 14 37 64 57 112 21 50 41 85 47 81 12 -7 4 -171 -14 -267
-13 -67 -14 -70 -63 -101 -28 -17 -117 -63 -198 -100 -81 -38 -146 -71 -144
-72 7 -7 145 41 211 72 39 19 89 50 113 70 24 21 46 35 49 31 10 -10 -26 -115
-67 -194 -21 -40 -31 -67 -23 -61 21 18 79 127 108 204 33 87 38 93 82 97 31
3 37 7 40 31 l4 28 -41 -27 c-22 -15 -43 -25 -46 -22 -2 3 2 39 10 79 8 41 16
90 18 109 3 33 6 35 48 42 26 5 48 4 54 -2 7 -7 14 1 21 23 6 17 10 35 8 39
-2 3 -27 -7 -56 -23 -28 -16 -56 -29 -60 -29 -5 0 -7 24 -4 53 12 118 12 137
0 137 -18 0 -18 191 -1 208 9 9 9 12 0 12 -14 0 -15 116 -2 135 10 14 21 417
12 431 -4 6 -50 14 -102 18 -155 11 -857 85 -964 101 l-98 15 -22 -27 c-11
-15 -41 -54 -66 -88 -53 -70 -88 -83 -108 -40 -17 37 -17 37 33 103 25 33 45
63 45 66 0 3 -16 6 -35 6 -62 0 -755 106 -1053 160 -205 38 -278 53 -459 91
l-143 31 -47 -35 c-27 -20 -82 -63 -123 -96 -77 -62 -107 -72 -134 -45 -35 34
-16 61 113 160 47 36 59 50 45 52 -176 24 -786 187 -1157 308 l-107 36 -131
-66 c-108 -55 -133 -64 -150 -55 -25 13 -33 32 -25 62 4 16 28 34 86 62 93 45
95 41 -47 94 -43 16 -138 54 -211 85 -120 50 -133 54 -130 35z m713 -287 c66
-23 82 -33 99 -61 16 -28 17 -38 8 -65 -7 -18 -12 -44 -12 -59 0 -28 58 -106
165 -219 67 -71 100 -124 109 -173 3 -16 10 -33 16 -39 5 -5 10 -19 10 -31 0
-11 7 -31 16 -43 8 -12 12 -22 9 -22 -3 0 -1 -9 5 -21 6 -11 13 -28 15 -37 4
-19 22 -70 84 -242 23 -63 50 -140 59 -170 8 -30 19 -56 24 -58 4 -2 8 -14 8
-26 0 -12 4 -26 8 -31 4 -6 16 -37 26 -70 10 -33 22 -69 26 -80 4 -11 14 -40
21 -65 7 -25 16 -50 21 -56 5 -7 10 -20 12 -30 2 -11 13 -43 25 -71 11 -29 18
-53 15 -53 -3 0 -2 -6 3 -12 4 -7 8 -15 9 -18 5 -27 19 -70 30 -92 8 -15 16
-35 17 -45 2 -10 9 -31 16 -48 7 -16 13 -38 14 -47 1 -10 5 -18 9 -18 4 0 7
-3 6 -7 -3 -11 22 -85 33 -99 5 -6 6 -14 3 -17 -3 -3 1 -16 9 -28 9 -11 13
-28 10 -35 -3 -8 -1 -14 5 -14 5 0 10 -10 11 -22 1 -41 4 -58 11 -58 4 0 12
-11 18 -25 14 -31 15 -38 4 -31 -5 3 -8 -8 -8 -23 0 -17 5 -28 12 -27 13 1 19
-13 7 -15 -43 -6 -58 -58 -24 -81 11 -8 25 -26 32 -41 7 -15 18 -27 25 -27 8
0 10 -8 6 -22 -4 -16 -2 -20 10 -15 12 4 14 1 10 -15 -4 -16 -2 -19 9 -14 8 4
6 1 -3 -7 -18 -14 -25 -33 -9 -23 4 3 8 -10 7 -28 -1 -32 -16 -41 -16 -10 0 8
-4 14 -10 14 -5 0 -10 9 -10 21 0 15 -5 19 -15 15 -9 -3 -18 1 -22 9 -4 12 -9
13 -19 4 -11 -9 -14 -6 -14 15 0 28 -1 29 -23 20 -12 -4 -15 -28 -16 -107 -1
-56 -4 -117 -6 -136 -2 -19 -7 -77 -10 -129 -6 -118 -15 -191 -25 -197 -14 -8
-20 119 -20 409 0 195 -4 286 -10 276 -8 -13 -11 -11 -16 7 -3 12 -12 19 -19
17 -7 -3 -16 -1 -20 5 -3 7 2 11 14 11 12 0 21 4 21 9 0 4 -11 6 -24 4 -17 -4
-27 1 -35 15 -6 11 -31 28 -56 38 -30 13 -48 27 -51 42 -4 13 -14 22 -25 22
-11 0 -22 6 -25 14 -3 7 -23 19 -45 26 -21 7 -39 19 -39 26 0 14 -22 24 -54
24 -12 0 -32 9 -44 20 -12 11 -25 20 -29 20 -5 0 -9 11 -11 25 -3 23 -22 37
-22 15 0 -21 -45 -3 -51 21 l-7 24 -7 -22 c-9 -29 -22 -29 -30 -2 -6 17 -9 19
-16 8 -7 -11 -9 -10 -9 5 0 12 -5 16 -16 12 -11 -4 -18 1 -21 14 -6 22 -23 28
-23 8 0 -8 -3 -9 -8 -3 -4 6 -24 22 -44 37 -25 20 -38 24 -42 15 -3 -6 -4 13
-2 43 2 30 -1 63 -6 74 -6 10 -6 16 -1 13 4 -3 8 11 9 30 1 25 -2 31 -8 19 -5
-9 -6 -21 -2 -28 4 -7 3 -8 -5 -4 -7 4 -9 16 -6 27 4 11 2 25 -3 32 -11 14
-13 69 -2 62 4 -2 5 7 2 20 -2 15 0 25 7 25 7 0 10 4 7 9 -4 5 -1 22 6 38 6
15 12 30 12 33 1 3 4 10 7 15 8 15 13 71 14 150 0 88 -24 154 -79 213 -41 45
-68 60 -120 69 -16 3 -40 9 -53 14 -13 5 -22 5 -19 0 3 -4 -6 -6 -19 -3 -24 4
-25 7 -25 88 0 79 2 85 23 93 12 5 27 6 32 3 6 -3 7 -2 3 3 -8 9 32 42 45 37
5 -1 6 2 3 7 -4 5 4 26 16 46 15 26 21 52 20 86 -1 54 -13 83 -51 118 -14 14
-25 28 -24 33 2 4 -4 5 -12 2 -8 -4 -15 -1 -15 5 0 6 -3 10 -7 10 -35 -6 -38
33 -18 201 2 14 6 54 10 90 11 115 54 332 72 363 6 11 21 8 108 -21z m-159
-14 c-32 -114 -66 -337 -83 -545 -4 -54 -10 -73 -20 -73 -43 0 27 590 75 628
24 18 35 15 28 -10z m369 -48 c24 -9 25 -11 11 -26 -9 -8 -16 -22 -16 -30 0
-8 -4 -13 -9 -10 -5 3 -20 -4 -35 -15 -14 -11 -26 -16 -26 -11 0 26 34 102 46
102 1 0 15 -5 29 -10z m286 -107 c13 -16 12 -17 -3 -4 -17 13 -22 21 -14 21 2
0 10 -8 17 -17z m322 -62 c62 -16 147 -37 190 -46 42 -9 77 -21 77 -25 0 -5
-27 -30 -60 -55 -56 -43 -60 -49 -60 -86 0 -64 13 -79 69 -79 45 0 54 5 162
89 l115 89 89 -19 c50 -11 170 -35 269 -54 98 -19 179 -35 180 -37 1 -2 26
-52 56 -112 l53 -108 -12 -92 c-6 -50 -16 -122 -21 -161 -12 -92 -12 -342 0
-430 12 -81 56 -209 78 -227 14 -11 15 -10 8 7 -26 69 -48 176 -58 280 -10
109 -9 131 11 244 12 68 26 131 30 140 6 10 18 -15 40 -86 30 -97 31 -106 31
-292 0 -329 45 -652 114 -816 31 -74 33 -49 5 76 -11 52 -23 112 -25 134 l-5
40 33 -60 c18 -33 47 -87 63 -120 17 -33 33 -61 38 -63 4 -2 7 -10 7 -18 0 -8
13 -42 28 -77 15 -34 27 -66 27 -72 -5 -58 -18 -161 -26 -205 -5 -31 -13 -98
-19 -150 -5 -52 -17 -158 -26 -235 -9 -82 -16 -228 -17 -352 0 -116 -3 -210
-6 -208 -4 2 -6 -7 -6 -20 0 -13 3 -21 7 -19 8 5 22 -59 21 -96 0 -14 4 -29
11 -33 6 -5 1 -6 -11 -2 -15 4 -23 2 -23 -6 0 -7 -2 -10 -5 -7 -3 3 -1 17 4
32 8 20 8 26 -4 26 -26 0 -88 68 -90 101 -3 29 -15 55 -15 31 0 -7 -5 -12 -10
-12 -7 0 -8 6 -2 16 5 9 6 32 2 50 -5 23 -4 32 3 27 7 -4 8 0 2 13 -5 10 -9
31 -9 45 -1 33 -23 59 -48 59 -17 0 -18 3 -9 14 9 10 9 16 1 21 -6 4 -14 4
-17 1 -4 -3 0 -6 8 -6 12 0 11 -2 -1 -10 -26 -16 -102 15 -82 34 3 4 -1 4 -11
0 -17 -6 -17 -7 0 -20 17 -13 17 -14 -2 -7 -11 3 -25 10 -31 14 -6 5 -14 6
-17 2 -4 -3 -7 -2 -7 3 0 5 -14 11 -31 12 -43 3 -52 6 -64 17 -13 12 -35 84
-35 114 0 11 -4 21 -10 21 -5 0 -8 13 -6 30 5 47 40 160 49 160 4 0 5 -5 1
-12 -4 -7 -3 -8 5 -4 7 5 9 12 3 19 -10 13 -12 47 -2 47 5 0 9 25 10 74 2 38
-21 46 -138 50 -107 3 -150 15 -136 37 3 5 -1 9 -8 9 -7 1 -24 23 -37 50 -13
27 -29 48 -35 47 -6 -1 -10 4 -8 11 1 8 -2 11 -7 8 -18 -11 -23 16 -22 103 2
97 -8 117 -54 109 -20 -4 -27 1 -40 27 -8 18 -15 37 -15 43 0 5 -8 20 -18 33
-10 13 -26 51 -36 84 -32 114 -89 280 -98 292 -5 7 -7 17 -3 23 3 5 1 10 -4
10 -6 0 -11 7 -11 15 0 8 -14 49 -30 90 -17 42 -32 84 -33 93 -2 9 -11 35 -21
57 -9 21 -18 46 -20 55 -2 8 -8 28 -14 43 -7 16 -12 33 -12 38 0 6 -7 24 -17
42 -9 18 -20 46 -24 62 -4 17 -20 62 -34 100 -15 39 -28 77 -30 85 -2 8 -17
50 -33 92 -16 42 -27 79 -24 82 3 3 0 6 -6 6 -7 0 -11 3 -10 8 1 4 -3 17 -10
30 -7 12 -9 22 -5 22 4 0 2 5 -5 12 -7 7 -12 19 -12 27 0 15 -41 132 -61 176
-5 11 -15 40 -23 65 -8 25 -23 69 -34 98 -21 54 -25 83 -23 190 1 36 5 62 12
62 5 0 60 -13 122 -29z m-276 -208 c36 -82 41 -184 15 -288 -11 -44 -23 -98
-27 -120 -7 -38 -8 -39 -17 -15 -6 14 -9 55 -9 93 2 66 1 68 -39 107 -44 43
-50 69 -20 87 33 21 53 71 47 120 -3 34 -1 43 10 43 9 0 13 6 9 15 -3 8 -3 15
0 15 3 0 17 -26 31 -57z m-87 -93 c-22 -31 -50 -40 -50 -17 0 7 14 23 30 35
19 15 31 32 32 50 1 24 2 23 5 -6 3 -22 -3 -42 -17 -62z m2051 -70 c-2 -25 -6
-101 -10 -170 -5 -105 -9 -125 -23 -128 -13 -3 -18 9 -24 64 -7 68 1 258 12
276 3 5 16 8 27 6 20 -3 22 -8 18 -48z m259 9 c85 -11 161 -22 168 -25 10 -3
5 -16 -17 -46 -53 -72 -33 -148 39 -148 35 0 41 5 95 78 33 42 62 81 66 85 4
5 80 0 170 -11 90 -12 283 -33 429 -47 146 -14 283 -28 306 -31 36 -4 42 -9
51 -38 10 -34 10 -34 -26 -40 -20 -3 -65 -6 -101 -6 -36 -1 -114 -7 -175 -14
-91 -10 -120 -18 -170 -44 -59 -32 -93 -58 -128 -99 l-18 -21 41 14 c22 8 84
19 136 24 52 5 134 19 184 29 139 31 291 45 301 29 5 -7 9 -16 9 -20 0 -5 -53
-8 -117 -8 -65 0 -143 -4 -173 -10 -105 -18 -189 -39 -212 -52 -22 -13 -22
-13 15 -16 32 -3 36 -6 26 -18 -23 -28 -2 -23 47 11 35 24 67 37 114 44 102
17 113 11 22 -11 -104 -25 -101 -35 5 -14 93 18 240 27 268 16 12 -5 -18 -9
-80 -9 -106 -1 -261 -28 -312 -54 -16 -9 -52 -37 -79 -63 -37 -35 -43 -45 -25
-39 16 5 21 4 17 -4 -4 -6 -3 -11 3 -11 5 0 13 5 16 10 10 17 28 11 23 -7 -4
-16 6 -19 96 -23 181 -8 308 -3 355 14 49 18 71 13 25 -5 -60 -23 -189 -39
-279 -35 -49 3 -76 2 -60 -1 17 -2 38 -12 48 -20 12 -12 17 -12 17 -3 0 13 53
5 58 -10 2 -4 17 -3 33 4 28 10 33 9 57 -19 14 -16 23 -22 19 -12 -5 14 0 17
31 19 20 1 47 1 60 0 12 0 20 3 17 8 -6 9 25 23 33 15 3 -3 6 -27 6 -52 l1
-48 -65 -12 c-101 -18 -348 -36 -416 -29 -34 3 -126 23 -205 42 -101 26 -166
37 -216 36 l-73 0 0 32 c0 35 -29 99 -59 134 -10 12 -21 22 -23 22 -3 0 11
-30 29 -67 18 -38 34 -83 35 -101 l3 -33 -155 -65 c-242 -102 -317 -124 -419
-124 l-48 0 -16 58 c-35 126 -32 157 11 127 17 -13 19 -20 11 -48 l-9 -32 23
26 c17 20 32 26 65 27 26 1 42 -3 42 -11 0 -6 12 1 27 18 l27 29 6 -25 6 -24
8 23 c4 12 15 22 25 22 23 0 113 31 108 37 -3 2 -41 -3 -86 -12 -52 -11 -104
-15 -143 -11 -93 8 -88 21 7 18 57 -2 104 2 147 14 35 9 81 20 103 23 31 5 39
10 37 24 -3 19 6 21 42 7 14 -5 26 -6 26 -2 0 13 -81 61 -132 78 -26 8 -46 20
-43 24 8 14 -70 32 -170 41 l-90 7 110 -2 c96 -1 117 -5 168 -29 32 -14 70
-36 84 -47 40 -31 52 -23 13 10 -28 25 -31 30 -15 30 20 1 20 1 1 15 -24 18
-115 45 -152 45 -18 0 -24 4 -19 9 14 14 183 15 223 3 43 -14 40 -3 -11 35
-103 76 -101 76 -316 82 l-196 6 3 65 c2 36 7 103 13 150 5 47 9 93 9 104 0
16 5 18 38 12 20 -3 107 -15 192 -27z m-2985 -70 c54 -14 115 -75 115 -115 0
-62 -41 -95 -135 -110 -64 -9 -185 57 -185 102 0 44 47 97 106 118 49 18 47
18 99 5z m705 -73 c-1 -17 -2 -18 -9 -6 -5 8 -12 26 -15 40 -7 24 -6 24 8 6 9
-11 16 -29 16 -40z m175 -132 c28 -87 59 -173 68 -191 12 -23 17 -57 17 -115
0 -92 -16 -218 -29 -231 -4 -4 -15 14 -24 40 -8 26 -37 107 -62 178 -38 106
-48 147 -52 220 -7 112 5 267 20 262 5 -1 33 -75 62 -163z m125 -174 c11 -74
20 -149 20 -166 0 -17 12 -59 26 -95 l27 -64 -12 -151 c-18 -230 -18 -230 -74
-76 l-47 131 16 68 c19 75 23 250 12 453 -7 141 0 118 32 -100z m4270 176 c0
-24 7 -130 16 -236 8 -106 14 -199 12 -207 -2 -8 -27 17 -58 58 -80 104 -81
108 -64 140 8 16 14 50 14 78 0 42 20 155 35 199 2 6 14 12 25 12 17 0 20 -6
20 -44z m160 -24 c0 -37 9 -146 20 -242 58 -517 154 -878 332 -1250 62 -131
68 -148 62 -187 -8 -55 -12 -52 -115 86 -131 177 -215 355 -289 616 -42 148
-93 390 -87 408 4 14 57 -79 87 -155 13 -32 25 -56 27 -54 6 6 -36 106 -83
198 -54 104 -63 160 -89 551 l-7 97 71 0 71 0 0 -68z m263 52 c109 -4 199 -10
202 -13 3 -6 -15 -591 -35 -1081 -5 -146 -10 -310 -11 -365 -1 -144 -8 -153
-48 -63 -174 380 -262 708 -326 1216 -14 106 -25 222 -25 258 0 64 1 66 23 60
12 -3 111 -9 220 -12z m-707 -119 c-7 -18 -26 -20 -26 -2 0 18 24 41 28 27 2
-6 1 -17 -2 -25z m64 -66 c17 -28 30 -53 28 -54 -2 -2 -22 12 -46 31 -35 30
-40 39 -32 55 6 10 12 19 14 19 3 0 18 -23 36 -51z m-5089 -21 c1 -35 2 -78 4
-97 3 -41 -4 -71 -16 -71 -5 0 -9 52 -9 115 0 70 4 115 10 115 6 0 11 -28 11
-62z m2984 31 c45 -1 41 -3 -35 -14 -47 -7 -101 -20 -120 -28 l-35 -16 35 5
35 5 -38 -15 c-37 -14 -69 -35 -35 -23 10 3 41 9 70 12 l53 5 -65 -20 c-36
-10 -68 -19 -72 -20 -5 0 -8 28 -8 61 l0 62 83 -6 c45 -4 105 -7 132 -8z
m2215 -16 c0 -36 -10 -73 -20 -73 -11 0 -30 48 -30 75 0 20 5 25 25 25 21 0
25 -5 25 -27z m-152 -51 c4 -26 19 -29 24 -6 3 14 6 14 27 -3 l25 -20 -33 -52
c-19 -28 -36 -50 -38 -47 -4 4 -33 140 -33 154 0 2 6 2 13 0 6 -3 13 -14 15
-26z m-648 -22 c0 -12 -45 -24 -60 -15 -5 3 -8 11 -5 16 8 12 65 12 65 -1z
m-310 -19 c16 -30 14 -31 -52 -31 -70 0 -104 13 -78 30 10 6 16 6 18 0 2 -6
13 -3 25 5 30 21 74 19 87 -4z m212 4 c0 -5 -5 -11 -11 -13 -6 -2 -11 4 -11
13 0 9 5 15 11 13 6 -2 11 -8 11 -13z m-138 -26 c-3 -5 -10 -7 -15 -3 -5 3 -7
10 -3 15 3 5 10 7 15 3 5 -3 7 -10 3 -15z m986 5 c11 -13 8 -26 -19 -83 -18
-37 -41 -78 -50 -90 l-18 -23 -6 45 c-6 41 -3 51 28 97 19 29 35 56 35 61 0
14 16 11 30 -7z m-1946 -55 c-7 -12 -51 -12 -59 0 -6 11 22 19 47 13 10 -2 15
-8 12 -13z m-269 -16 c8 -24 -1 -27 -35 -13 -23 9 -28 16 -20 25 13 16 47 8
55 -12z m195 7 c0 -5 -5 -10 -11 -10 -5 0 -7 5 -4 10 3 6 8 10 11 10 2 0 4 -4
4 -10z m-3320 -10 c0 -12 -49 -45 -56 -37 -7 7 32 47 46 47 6 0 10 -4 10 -10z
m5429 -124 c35 -90 54 -153 102 -330 19 -75 22 -39 5 64 -15 82 -62 267 -81
313 -13 31 4 18 44 -35 37 -50 41 -63 66 -203 69 -388 172 -677 318 -895 48
-72 133 -184 170 -225 13 -14 16 -30 13 -60 -3 -22 -8 -137 -11 -255 -7 -272
-26 -734 -30 -738 -4 -5 -102 55 -172 105 -47 33 -65 53 -72 79 -6 23 -36 60
-89 112 -81 78 -116 136 -142 233 -9 32 -15 39 -35 39 -53 0 -71 17 -118 110
-26 50 -47 97 -47 104 0 8 -12 16 -27 19 -16 4 -42 15 -60 26 l-32 20 17 53
c14 45 17 100 17 373 -1 176 -2 367 -4 425 -2 58 -1 114 2 125 3 11 6 28 6 38
1 10 6 15 11 12 14 -9 71 -122 116 -232 l37 -88 -6 -145 c-4 -80 -11 -165 -17
-190 -5 -25 -12 -56 -15 -70 -5 -24 -5 -24 10 3 24 42 55 174 55 231 0 76 17
46 45 -80 13 -60 24 -101 24 -91 1 21 -46 254 -54 267 -2 4 -9 52 -15 106 -18
161 -58 313 -120 449 -15 33 -37 81 -49 107 -12 26 -24 74 -27 107 -6 51 -4
63 14 86 12 15 36 58 54 97 38 84 39 83 97 -66z m-2234 114 c-3 -5 -10 -10
-16 -10 -5 0 -9 5 -9 10 0 6 7 10 16 10 8 0 12 -4 9 -10z m2009 -92 c10 -39 7
-70 -6 -66 -15 5 -24 88 -10 88 5 0 12 -10 16 -22z m-5287 -60 c8 -62 7 -76
-7 -93 -35 -41 -34 -49 3 -26 20 12 37 18 37 12 0 -10 -79 -61 -94 -61 -4 0
-6 35 -5 78 2 76 27 162 48 162 5 0 13 -33 18 -72z m462 -2 c24 -26 33 -76 14
-83 -8 -3 -13 4 -13 19 0 13 -9 38 -20 56 -23 37 -13 42 19 8z m2215 -73 c48
-185 55 -220 57 -282 1 -36 6 -81 10 -98 13 -60 -9 -24 -34 55 -23 72 -30 99
-57 240 -12 64 -13 152 -2 152 5 0 17 -30 26 -67z m-2827 -5 c-2 -13 -4 -3 -4
22 0 25 2 35 4 23 2 -13 2 -33 0 -45z m1584 -113 c-5 -11 -12 -29 -15 -40 -7
-29 2 91 11 150 l8 50 3 -70 c2 -38 -1 -79 -7 -90z m1619 74 c0 -6 -4 -7 -10
-4 -5 3 -10 11 -10 16 0 6 5 7 10 4 6 -3 10 -11 10 -16z m-2715 -69 c10 -19
33 -56 51 -81 52 -72 155 -289 137 -289 -2 0 -18 30 -34 66 -17 36 -55 105
-86 152 -68 105 -103 178 -102 212 l1 25 7 -25 c5 -14 16 -41 26 -60z m252 48
c-3 -7 -5 -2 -5 12 0 14 2 19 5 13 2 -7 2 -19 0 -25z m4703 -25 c24 -37 30
-58 30 -101 0 -60 -10 -61 -40 -2 -19 38 -39 150 -26 150 3 0 20 -21 36 -47z
m-2183 -59 c49 -92 51 -104 20 -104 -38 0 -54 21 -66 85 -5 33 -13 71 -17 84
-15 50 21 13 63 -65z m-3243 50 c3 -8 2 -12 -4 -9 -6 3 -10 -4 -10 -16 0 -12
-3 -20 -6 -16 -6 6 3 57 10 57 2 0 7 -7 10 -16z m713 -6 c-3 -8 -6 -5 -6 6 -1
11 2 17 5 13 3 -3 4 -12 1 -19z m-22 -78 c-9 -28 -19 -50 -21 -48 -2 2 4 27
13 56 9 28 19 50 21 47 2 -2 -4 -27 -13 -55z m915 25 c-7 -8 -17 -15 -23 -15
-5 0 -2 9 8 20 21 23 35 19 15 -5z m3530 -15 c0 -5 -5 -10 -11 -10 -5 0 -7 5
-4 10 3 6 8 10 11 10 2 0 4 -4 4 -10z m-3556 -45 c-19 -29 -29 -27 -19 4 3 12
13 21 21 21 12 0 12 -4 -2 -25z m40 0 c-4 -8 -2 -15 2 -15 5 0 9 -24 10 -53 0
-31 14 -94 34 -155 l34 -102 -23 -95 c-13 -52 -27 -95 -32 -95 -4 0 -18 30
-30 68 -16 49 -23 104 -28 207 -6 123 -4 145 12 178 10 22 16 41 14 43 -11 11
-43 -58 -59 -126 l-18 -75 5 59 c6 63 31 130 59 159 21 21 27 22 20 2z m3905
-31 c29 -49 87 -218 95 -279 7 -47 4 -44 -58 79 -57 111 -66 135 -66 182 0 30
2 54 4 54 2 0 14 -16 25 -36z m-5350 -66 c0 -39 -2 -75 -5 -80 -16 -25 -94 69
-91 110 1 23 30 31 42 12 10 -17 33 -11 40 10 11 34 14 23 14 -52z m5281 -31
c0 -66 -10 -54 -26 30 -12 68 -12 68 7 44 13 -16 19 -39 19 -74z m-5044 54
c-3 -4 1 -17 9 -27 8 -10 15 -29 15 -41 0 -12 5 -25 10 -28 6 -3 10 -15 10
-25 0 -10 6 -23 13 -27 13 -8 54 -118 68 -178 1 -5 5 8 9 30 l7 40 3 -55 c3
-53 3 -53 11 -20 6 28 7 24 4 -22 -3 -51 -2 -56 16 -53 12 2 19 -2 19 -11 0
-19 -20 -17 -47 4 -14 11 -32 54 -53 122 -18 58 -38 116 -45 130 -47 91 -69
170 -49 170 3 0 3 -4 0 -9z m2911 -63 c11 -13 31 -43 43 -67 l22 -44 -53 7
c-65 9 -69 11 -69 40 0 29 19 86 29 86 4 0 17 -10 28 -22z m-367 -35 c43 -91
88 -213 85 -231 -16 -79 -15 -77 -31 -54 -23 33 -43 98 -65 205 -28 143 -26
158 11 80z m2239 -21 c0 -24 -1 -25 -9 -7 -12 28 -12 47 0 40 6 -3 10 -18 9
-33z m-1759 -22 c29 -37 30 -40 11 -40 -14 0 -27 13 -41 40 -33 66 -22 66 30
0z m-1693 -100 c-6 -109 -5 -111 34 -228 35 -102 39 -124 33 -175 -3 -31 -9
-59 -12 -61 -4 -1 -21 1 -39 6 -29 7 -34 15 -62 98 l-30 91 29 132 c15 73 31
158 35 190 12 94 18 65 12 -53z m3349 43 c17 -59 22 -461 6 -490 -10 -19 -10
-22 2 -17 11 4 16 -4 20 -28 3 -18 10 -68 16 -111 7 -43 20 -108 30 -145 10
-36 16 -70 13 -75 -12 -19 -359 -272 -373 -272 -8 0 -19 -11 -25 -23 -5 -13
-64 -68 -130 -122 -66 -53 -129 -108 -140 -120 -11 -12 -40 -36 -65 -53 -39
-27 -107 -86 -354 -309 -22 -20 -44 -37 -47 -38 -4 0 -21 35 -40 78 -18 42
-39 86 -47 97 -14 19 -14 19 -7 -5 4 -14 9 -75 12 -136 5 -108 5 -112 -17
-124 -20 -11 -27 -7 -77 42 -30 30 -57 65 -60 81 -4 20 -8 25 -14 16 -5 -9
-11 2 -15 31 -7 38 -9 41 -14 20 -6 -24 -7 -23 -38 22 -30 44 -32 51 -31 135
l0 88 24 -60 c30 -77 30 -65 0 70 -14 60 -25 116 -25 123 0 14 117 142 130
142 4 0 15 -16 26 -36 l19 -35 6 66 c4 43 12 72 23 83 16 16 20 13 77 -45 33
-35 58 -67 54 -73 -4 -6 -2 -9 3 -8 5 2 30 -25 56 -59 25 -35 48 -63 51 -63 3
0 4 14 3 30 -1 17 -6 30 -11 30 -4 0 -5 5 -2 10 3 6 0 10 -7 10 -9 0 -9 3 2
10 13 8 12 10 -3 10 -10 0 -15 5 -12 10 3 6 -1 10 -9 10 -8 0 -18 5 -22 11 -5
9 4 10 32 6 38 -6 37 -6 -11 13 l-50 19 60 -4 60 -5 -40 14 -40 14 45 3 c35 3
45 8 44 22 -1 9 4 17 11 17 7 0 28 26 48 59 88 141 248 340 372 459 70 68 129
121 132 118 3 -3 0 -13 -8 -23 -12 -15 -12 -16 4 -10 20 7 22 -3 5 -23 -7 -8
-3 -6 10 5 16 13 19 21 10 26 -8 5 3 24 35 62 26 31 47 60 47 66 0 6 47 60
105 120 l105 108 -17 66 c-16 62 -16 68 0 102 21 45 38 41 53 -12z m-4786 27
c0 -5 6 -7 14 -4 11 4 14 -1 11 -24 -3 -22 3 -35 21 -51 34 -30 30 -41 -15
-41 -33 0 -44 5 -65 33 -14 19 -29 48 -32 65 -6 31 -6 32 30 32 20 0 36 -4 36
-10z m3144 -119 c31 -54 80 -133 110 -175 31 -42 50 -76 44 -76 -14 0 -221 88
-242 103 -24 17 -66 213 -51 237 3 5 23 10 45 10 38 0 38 -1 94 -99z m1825 31
c1 -13 -3 -20 -9 -17 -5 3 -10 23 -9 43 0 30 2 33 9 17 5 -11 9 -30 9 -43z
m-59 -94 c-1 -126 -3 -136 -29 -187 -25 -49 -28 -52 -34 -30 -4 13 -7 75 -7
137 0 104 2 116 25 150 14 20 25 42 25 49 0 7 5 13 10 13 6 0 10 -51 10 -132z
m-1972 -20 c6 -16 8 -28 3 -28 -9 0 -31 44 -31 62 0 16 13 -1 28 -34z m-113
-188 c-10 -47 -19 -87 -20 -88 -6 -7 -65 130 -65 151 0 19 3 18 37 -14 l37
-34 -32 40 c-26 32 -32 49 -32 86 0 84 9 86 52 12 l39 -67 -16 -86z m2239 55
c63 -195 68 -227 51 -340 -19 -125 -18 -139 6 -90 l19 40 -5 -63 c-4 -35 -10
-73 -15 -85 -9 -25 -12 -20 -30 53 -7 25 -17 51 -23 58 -14 18 -74 48 -134 68
-26 9 -51 21 -55 28 -15 23 -8 105 12 139 11 19 30 71 41 116 12 46 32 99 45
119 14 19 27 46 31 60 8 35 18 19 57 -103z m-4874 41 c24 -11 50 -32 58 -46
12 -22 12 -23 0 -8 -8 10 -37 27 -64 38 -50 21 -74 43 -74 68 0 9 6 6 18 -8
10 -12 38 -32 62 -44z m220 50 c0 -2 -7 -7 -16 -10 -8 -3 -12 -2 -9 4 6 10 25
14 25 6z m295 -6 c3 -5 1 -10 -4 -10 -6 0 -11 5 -11 10 0 6 2 10 4 10 3 0 8
-4 11 -10z m2259 -6 c9 -24 2 -26 -12 -4 -7 11 -8 20 -3 20 5 0 12 -7 15 -16z
m-2529 -4 c-3 -5 -11 -10 -16 -10 -6 0 -7 5 -4 10 3 6 11 10 16 10 6 0 7 -4 4
-10z m2569 -66 c3 -8 2 -12 -4 -9 -6 3 -10 10 -10 16 0 14 7 11 14 -7z m86
-32 c0 -21 -2 -24 -10 -12 -13 20 -13 53 0 45 6 -3 10 -18 10 -33z m-180 -77
l24 -40 -36 30 c-37 31 -48 51 -40 73 5 15 9 9 52 -63z m-2050 44 c0 -5 -4 -9
-10 -9 -5 0 -10 7 -10 16 0 8 5 12 10 9 6 -3 10 -10 10 -16z m-615 -39 c-21
-22 -41 -37 -44 -35 -4 5 68 74 79 75 2 0 -13 -18 -35 -40z m2525 -226 c-29
-144 -36 -239 -21 -279 6 -14 10 -1 15 45 8 76 43 271 54 301 7 17 17 8 77
-70 39 -50 76 -92 83 -95 18 -8 15 0 -16 36 -16 18 -37 49 -48 68 -10 19 -21
37 -24 40 -12 11 -59 98 -55 102 2 2 5 21 7 41 1 21 5 36 8 35 3 -2 24 -14 48
-28 44 -26 43 -23 228 -335 29 -49 66 -125 81 -169 l28 -79 -42 -36 c-38 -34
-70 -101 -58 -121 2 -4 0 -22 -6 -41 -5 -19 -12 -43 -14 -54 -3 -11 -14 -28
-26 -37 -12 -10 -18 -18 -14 -18 4 0 2 -7 -5 -15 -7 -8 -20 -15 -29 -15 -9 0
-17 -9 -18 -23 0 -12 -7 -35 -14 -52 -7 -16 -11 -34 -10 -39 1 -5 -6 -6 -15
-2 -13 5 -14 3 -6 -7 7 -8 7 -18 2 -27 -6 -8 -10 -10 -10 -5 0 6 -4 4 -9 -3
-4 -7 -14 -14 -22 -16 -8 -1 -23 -7 -34 -13 -16 -9 -22 -7 -37 9 -9 11 -20 34
-24 51 -3 18 -13 41 -20 52 -8 11 -14 32 -14 46 0 15 -5 29 -10 31 -6 2 -12
15 -14 29 -1 13 -6 30 -10 37 -4 7 -5 16 -2 21 4 5 2 21 -3 35 -6 14 -11 43
-13 66 -2 41 -11 52 -22 24 -21 -55 15 -234 80 -398 l36 -88 -46 -67 c-61 -87
-72 -101 -79 -101 -7 0 -43 164 -58 265 -27 182 -13 506 41 982 11 95 20 176
20 180 0 5 16 -20 35 -54 l34 -62 -29 -147z m-1200 163 c12 -38 19 -71 16 -74
-3 -4 -22 1 -42 10 -31 15 -35 21 -30 45 2 15 8 44 11 66 8 48 17 39 45 -47z
m4479 68 c37 -19 117 -108 158 -177 l32 -53 -9 -260 c-6 -143 -19 -537 -30
-875 -11 -338 -22 -676 -25 -750 -12 -292 -65 -1964 -68 -2108 l-2 -152 -40
-11 c-51 -14 -136 -6 -170 17 l-27 18 6 130 c4 72 18 480 31 906 49 1513 65
2018 75 2275 5 143 15 439 21 658 7 218 14 397 16 397 2 0 17 -7 32 -15z
m-2996 -59 c15 -18 34 -53 43 -77 9 -24 34 -69 54 -99 21 -31 45 -71 55 -90
10 -19 20 -30 22 -24 2 6 -10 33 -27 60 -35 57 -55 115 -37 108 7 -2 28 -28
48 -57 31 -44 39 -68 53 -157 14 -88 19 -180 9 -180 -5 0 -213 431 -246 513
-20 46 -8 48 26 3z m-2883 3 c32 -13 60 -51 67 -92 4 -29 0 -38 -36 -70 -48
-43 -83 -47 -151 -16 -62 28 -80 47 -80 83 0 83 104 132 200 95z m1494 -36
c-36 -60 -51 -113 -38 -135 4 -7 -1 -5 -12 4 -29 25 -127 67 -196 83 -73 17
-84 25 -34 25 21 0 79 -14 129 -30 89 -30 106 -30 107 4 0 9 69 106 75 106 2
0 -12 -26 -31 -57z m1532 -2 c3 -9 8 -31 11 -50 3 -30 2 -33 -12 -21 -17 14
-38 51 -55 95 l-10 26 30 -17 c16 -10 32 -25 36 -33z m1677 34 c-3 -9 -8 -14
-10 -11 -3 3 -2 9 2 15 9 16 15 13 8 -4z m-3202 -195 l-19 -42 39 -116 c21
-64 37 -117 36 -119 -7 -6 -137 100 -137 112 0 7 7 28 15 48 16 39 14 43 -40
69 -57 29 -73 30 -84 9 -10 -17 -7 -22 24 -37 40 -19 50 -30 35 -39 -16 -10
-71 5 -77 21 -10 28 7 82 33 99 24 15 28 15 81 -9 30 -15 59 -26 63 -26 4 0
15 18 25 40 10 22 20 39 22 37 2 -2 -5 -23 -16 -47z m3298 -56 c39 -14 74 -31
79 -38 5 -6 16 -53 25 -103 20 -106 17 -119 -51 -196 -28 -32 -30 -36 -8 -17
16 14 42 39 57 55 l28 30 11 -29 c6 -16 9 -29 8 -30 -23 -12 -140 -92 -196
-133 l-74 -54 2 -52 c6 -146 -1 -380 -11 -370 -7 7 -9 77 -7 207 2 108 1 196
-2 196 -3 0 -21 -13 -40 -29 -19 -15 -114 -83 -210 -151 -410 -289 -678 -503
-1009 -804 -78 -72 -147 -132 -152 -134 -4 -2 -19 19 -33 46 -19 38 -22 52
-13 61 9 10 8 11 -5 6 -11 -4 -18 0 -23 15 -5 16 6 34 45 80 29 33 63 68 75
78 13 10 79 71 147 134 238 224 908 785 1162 973 129 95 189 146 181 153 -3 3
-11 0 -17 -6 -7 -7 -15 -12 -19 -12 -6 0 -39 123 -39 144 0 10 18 6 89 -20z
m-3383 -52 c-21 -72 -22 -70 49 -142 l67 -67 -17 -32 -16 -32 -76 71 c-42 38
-82 70 -89 70 -19 0 -31 22 -39 67 l-7 43 41 -15 c39 -13 41 -13 56 8 22 31
19 45 -15 62 -16 9 -30 18 -30 20 0 3 18 -4 41 -15 29 -15 39 -26 35 -38z
m532 -3 c-25 -13 -43 -32 -53 -56 -21 -49 -29 -37 -11 15 l15 42 -75 0 c-48 0
-73 4 -69 10 4 6 54 10 118 10 l112 -1 -37 -20z m-1988 1 c8 6 18 10 21 10 9
0 2 -83 -11 -130 -9 -32 -8 -44 5 -64 9 -13 18 -41 21 -62 9 -75 15 -119 17
-144 1 -14 6 -28 10 -31 5 -4 10 -43 10 -88 1 -44 5 -81 9 -81 3 0 12 -16 18
-35 15 -47 25 -44 25 7 1 138 6 241 11 236 3 -3 5 -79 6 -169 0 -187 4 -200
103 -354 74 -114 120 -169 232 -278 122 -118 183 -169 448 -367 116 -86 235
-180 265 -208 48 -45 52 -51 32 -52 -54 -1 -78 -25 -105 -107 -14 -43 -28 -95
-32 -116 -5 -25 -17 -44 -37 -58 l-29 -21 -57 53 c-195 182 -407 414 -512 562
-36 50 -48 61 -29 25 46 -87 205 -274 403 -476 94 -95 162 -170 151 -166 -14
6 -17 4 -12 -9 7 -19 -17 -42 -35 -31 -41 24 -165 134 -243 215 -156 162 -230
260 -322 424 -39 69 -56 105 -108 220 -15 33 -31 69 -36 80 -5 11 -25 61 -44
110 l-34 90 0 -55 c-1 -30 4 -62 9 -70 9 -13 10 -13 10 0 0 13 1 13 10 0 13
-20 13 -33 0 -25 -5 3 -7 0 -4 -8 3 -8 -2 -17 -10 -20 -9 -4 -16 -5 -16 -3 0
2 -13 54 -30 117 -16 63 -31 128 -34 144 -3 17 -8 44 -12 60 -12 56 8 17 31
-62 20 -67 24 -73 24 -41 1 20 -17 99 -38 175 -54 190 -105 427 -105 490 -1
28 -5 49 -10 46 -4 -3 -5 4 -2 15 4 11 3 23 -3 26 -5 3 -7 20 -4 37 2 17 1 29
-4 26 -5 -3 -9 21 -9 53 -1 32 -4 62 -6 66 -3 5 -8 17 -12 28 -5 15 -2 17 14
13 11 -3 20 0 20 5 0 7 4 7 13 0 8 -7 18 -7 27 -2z m1283 -95 c-3 -9 -8 -14
-10 -11 -3 3 -2 9 2 15 9 16 15 13 8 -4z m-381 -37 c16 -31 19 -236 3 -310
-15 -73 -28 -89 -47 -57 -17 31 -17 286 1 347 13 47 25 52 43 20z m464 -31
c12 -7 52 -40 89 -74 l69 -62 -33 -52 c-26 -43 -31 -60 -27 -88 l6 -36 -25 47
c-22 41 -93 110 -166 161 l-22 16 44 42 44 41 -40 -27 c-22 -15 -49 -38 -60
-51 -11 -13 -36 -27 -55 -30 -33 -7 -30 -3 45 59 83 69 96 74 131 54z m4917
-119 c282 -246 425 -442 491 -670 21 -75 75 -324 91 -423 3 -22 9 -48 12 -59
5 -17 1 -18 -33 -12 -72 13 -70 11 -89 104 -36 182 -130 407 -250 597 -61 98
-215 304 -319 429 -36 43 -66 86 -66 95 1 11 8 7 28 -14 15 -17 51 -58 80 -90
41 -46 35 -35 -27 47 -74 97 -96 135 -72 126 5 -1 74 -60 154 -130z m-5063
118 c0 -2 -7 -7 -16 -10 -8 -3 -12 -2 -9 4 6 10 25 14 25 6z m443 -211 c30
-88 58 -167 61 -175 4 -11 -8 -22 -41 -40 -26 -14 -69 -42 -95 -62 -26 -21
-50 -38 -52 -38 -7 0 -59 90 -55 94 2 2 24 13 47 25 48 25 64 21 39 -7 -20
-21 -22 -38 -6 -48 11 -7 69 43 69 59 0 25 -45 129 -57 134 -8 3 -27 -7 -43
-22 l-30 -29 -12 35 c-6 19 -11 35 -11 37 1 6 128 200 129 199 1 -1 26 -74 57
-162z m1507 115 c0 -11 -4 -20 -10 -20 -5 0 -10 9 -10 20 0 11 5 20 10 20 6 0
10 -9 10 -20z m-1352 -11 c29 -10 62 -62 49 -76 -3 -3 -9 7 -13 22 -5 19 -19
32 -48 45 -45 20 -37 26 12 9z m1294 -62 c-29 -30 -32 -38 -32 -98 0 -94 30
-200 94 -327 69 -138 151 -260 227 -336 33 -33 59 -65 59 -73 0 -19 -47 -46
-67 -39 -15 6 -16 5 -5 -6 10 -10 -6 -31 -85 -110 -54 -54 -101 -98 -105 -98
-11 0 -66 123 -99 222 -46 136 -88 313 -100 423 -11 95 -10 105 15 202 14 56
26 126 26 157 0 51 3 57 42 95 52 49 79 39 30 -12z m65 -4 c-3 -10 -5 -2 -5
17 0 19 2 27 5 18 2 -10 2 -26 0 -35z m3037 -58 c240 -294 383 -530 465 -766
30 -89 68 -256 59 -265 -3 -2 -36 12 -74 33 -157 85 -258 123 -396 148 -42 8
-89 25 -124 46 l-56 34 6 75 c3 41 8 170 11 285 7 270 17 515 20 515 2 0 42
-47 89 -105z m-3047 17 l7 -37 6 30 c4 23 10 7 23 -70 19 -105 38 -306 30
-315 -19 -20 -131 194 -135 257 -5 83 2 131 23 157 25 32 36 27 46 -22z
m-1374 -42 c9 -25 18 -53 22 -62 4 -10 3 -18 -3 -18 -6 0 -18 24 -26 54 -26
87 -20 106 7 26z m174 -36 c1 -16 -1 -21 -3 -11 -4 12 -16 17 -47 18 l-42 1
35 13 c46 18 55 14 57 -21z m-388 -36 c7 -20 3 -26 -28 -45 -20 -12 -39 -23
-43 -23 -4 0 -15 16 -23 36 -19 45 -19 53 -1 29 13 -18 14 -18 42 3 37 27 43
27 53 0z m398 -40 c-3 -7 -5 -2 -5 12 0 14 2 19 5 13 2 -7 2 -19 0 -25z m-223
-81 c7 -19 17 -45 20 -58 7 -23 6 -23 -14 4 -12 15 -29 27 -37 27 -18 0 -113
-77 -113 -92 0 -5 9 -23 21 -39 l21 -29 40 32 c23 18 36 34 29 36 -7 2 -21 -4
-32 -14 -18 -16 -21 -16 -35 -3 -13 14 -11 18 24 42 47 33 56 33 70 3 10 -22
5 -30 -42 -82 -60 -66 -63 -66 -117 12 l-28 42 79 76 c44 42 84 76 90 76 5 0
16 -15 24 -33z m219 26 c-7 -2 -19 -2 -25 0 -7 3 -2 5 12 5 14 0 19 -2 13 -5z
m-56 -75 c-3 -8 -6 -5 -6 6 -1 11 2 17 5 13 3 -3 4 -12 1 -19z m408 -273 c6
-38 5 -47 -4 -39 -8 7 -13 67 -16 175 -4 163 -4 163 5 39 4 -69 11 -147 15
-175z m-199 238 c-5 -5 -76 24 -76 31 0 2 18 -3 40 -11 22 -9 38 -18 36 -20z
m-622 -8 c14 -11 24 -12 39 -3 16 8 13 1 -12 -33 -18 -24 -42 -59 -53 -76 -11
-18 -24 -33 -28 -33 -16 0 -22 21 -10 36 8 8 11 30 7 53 -3 28 0 43 11 55 20
19 22 19 46 1z m872 -52 c-10 -10 -19 5 -10 18 6 11 8 11 12 0 2 -7 1 -15 -2
-18z m-553 -35 c18 -45 16 -58 -7 -39 -8 6 -18 11 -22 10 -28 -5 -31 3 -15 36
9 19 19 34 22 35 3 0 13 -19 22 -42z m-403 28 c0 -2 -8 -10 -17 -17 -16 -13
-17 -12 -4 4 13 16 21 21 21 13z m969 -49 c0 -21 -1 -21 -9 -2 -12 28 -12 37
0 30 6 -3 10 -16 9 -28z m-223 -3 c18 -14 18 -14 -6 -3 -31 14 -36 19 -24 19
6 0 19 -7 30 -16z m-570 -169 c-22 -47 -41 -83 -43 -81 -2 2 2 19 10 37 14 33
14 35 -20 70 l-35 37 17 33 c32 62 35 63 75 24 l37 -36 -41 -84z m224 126 c7
-14 5 -29 -6 -57 l-16 -38 35 -30 c26 -23 43 -53 65 -116 17 -47 39 -110 50
-140 22 -60 21 -70 -10 -70 -15 0 -18 4 -12 18 13 30 8 67 -22 143 l-29 74 -5
-95 c-4 -71 -11 -106 -28 -137 -12 -24 -27 -43 -32 -43 -6 0 -10 36 -10 86 0
92 -33 308 -56 362 -12 31 -12 33 9 41 12 4 29 11 37 14 8 3 16 6 17 6 1 1 7
-8 13 -18z m-400 -6 c0 -17 -42 -27 -52 -12 -13 20 -9 24 22 25 19 0 30 -4 30
-13z m816 -101 c60 -26 133 -54 161 -63 l53 -16 -26 -40 c-23 -36 -25 -33 -8
9 4 10 -10 19 -53 30 -80 23 -269 119 -318 161 l-40 35 61 -34 c33 -19 110
-56 170 -82z m-866 56 c11 -6 25 -8 30 -5 16 10 11 -11 -6 -26 -17 -14 -16
-20 15 -96 11 -29 19 -53 17 -53 -2 0 -31 40 -64 88 -58 87 -59 89 -43 115 14
25 16 26 23 8 4 -11 16 -25 28 -31z m520 -75 c17 -49 30 -94 30 -99 -1 -15
-39 56 -40 72 0 7 -13 25 -30 38 -29 25 -29 26 -14 56 8 16 17 28 20 25 2 -2
18 -44 34 -92z m15 75 c3 -5 2 -10 -4 -10 -5 0 -13 5 -16 10 -3 6 -2 10 4 10
5 0 13 -4 16 -10z m511 -40 c0 -12 -4 -16 -9 -11 -5 5 -6 14 -3 20 10 15 12
14 12 -9z m-742 -140 c-32 -101 -120 -280 -146 -296 -5 -3 -16 -3 -25 0 -13 5
-11 11 10 39 34 45 118 204 158 300 17 42 34 76 35 74 2 -2 -12 -55 -32 -117z
m863 68 c-3 -8 -6 -5 -6 6 -1 11 2 17 5 13 3 -3 4 -12 1 -19z m-237 -145 c34
-31 -12 -10 -66 31 -104 78 -122 99 -34 40 47 -31 92 -63 100 -71z m250 93 c0
-2 -9 -6 -20 -9 -11 -3 -18 -1 -14 4 5 9 34 13 34 5z m-46 -22 c3 -8 2 -12 -4
-9 -6 3 -10 10 -10 16 0 14 7 11 14 -7z m-599 -195 c-10 -20 -26 -39 -36 -42
-23 -6 -23 -9 1 48 11 26 20 59 21 73 1 26 1 26 16 -7 13 -31 13 -38 -2 -72z
m-1695 56 c0 -5 -5 -3 -10 5 -5 8 -10 20 -10 25 0 6 5 3 10 -5 5 -8 10 -19 10
-25z m5914 -44 c15 -22 37 -48 48 -58 l20 -18 -18 37 c-10 21 -15 41 -11 44
10 10 164 -23 261 -56 58 -19 113 -47 166 -85 44 -31 82 -60 85 -64 2 -5 -12
-31 -33 -57 -21 -27 -57 -83 -79 -124 -22 -41 -64 -115 -93 -165 -98 -169
-264 -514 -381 -795 l-48 -115 -1 95 c0 52 9 356 20 675 11 319 20 613 20 653
0 39 4 72 9 72 4 0 20 -18 35 -39z m-5874 -46 c13 -33 30 -70 38 -83 8 -12 12
-25 9 -28 -3 -3 -14 14 -25 38 -11 23 -29 64 -41 90 -11 26 -21 50 -21 54 0
18 18 -15 40 -71z m-41 20 c0 -5 -4 -3 -9 5 -5 8 -9 22 -9 30 0 16 17 -16 18
-35z m1501 -29 c-12 -36 -26 -68 -31 -71 -4 -3 3 28 18 69 32 92 44 93 13 2z
m407 48 c-3 -3 -12 -4 -19 -1 -8 3 -5 6 6 6 11 1 17 -2 13 -5z m-77 -26 c-81
-36 -161 -55 -138 -33 5 6 158 52 173 53 6 0 -10 -9 -35 -20z m76 -23 c4 -14
3 -29 0 -33 -4 -3 -9 4 -13 16 -5 20 -10 22 -36 16 -17 -3 -51 -15 -75 -25
-35 -15 -43 -23 -40 -41 3 -20 9 -23 41 -22 33 1 35 0 19 -11 -37 -27 -54 -22
-72 21 l-18 41 86 31 c108 37 100 37 108 7z m-1678 -405 c38 -58 83 -121 98
-140 69 -83 187 -210 250 -270 60 -57 84 -90 67 -90 -3 0 -26 16 -49 36 -24
19 -44 32 -44 27 0 -11 -107 102 -205 216 -44 51 -95 110 -114 130 l-34 36 28
-40 c16 -22 49 -65 75 -95 25 -30 64 -80 86 -110 23 -30 82 -98 133 -151 50
-54 91 -100 91 -104 0 -4 -28 17 -62 46 -44 39 -58 47 -48 29 l13 -25 -28 25
c-80 73 -249 309 -315 440 -60 119 -170 412 -170 453 0 6 35 -60 79 -148 43
-88 110 -207 149 -265z m1442 376 c0 -2 -7 -7 -16 -10 -8 -3 -12 -2 -9 4 6 10
25 14 25 6z m830 -46 c0 -11 5 -39 10 -62 34 -142 62 -247 74 -278 8 -19 42
-106 76 -192 l61 -158 -68 -105 c-37 -57 -71 -105 -75 -105 -20 0 -76 238
-103 438 -8 60 -7 391 1 441 7 42 24 57 24 21z m-2387 -72 c6 -22 5 -22 -8 -4
-17 22 -20 40 -6 32 5 -3 11 -16 14 -28z m1450 -23 c-3 -9 -8 -14 -10 -11 -3
3 -2 9 2 15 9 16 15 13 8 -4z m-1398 -70 c108 -194 312 -437 485 -576 25 -21
43 -39 40 -42 -3 -3 -45 26 -93 65 -149 119 -341 356 -440 541 -21 38 -37 71
-37 73 0 14 13 -4 45 -61z m1395 20 c10 -12 10 -15 -4 -15 -9 0 -16 7 -16 15
0 8 2 15 4 15 2 0 9 -7 16 -15z m2188 -182 c-23 -32 -45 -60 -48 -63 -3 -3
-32 -41 -64 -85 -32 -44 -72 -97 -87 -117 -16 -20 -29 -41 -29 -47 0 -5 -3
-11 -7 -13 -11 -4 -226 -331 -300 -453 -80 -133 -171 -306 -228 -435 -26 -58
-50 -108 -54 -113 -6 -6 -21 14 -89 120 -12 20 -9 31 34 120 80 168 312 518
466 705 86 104 436 452 446 443 2 -2 -16 -30 -40 -62z m-2908 -438 c0 -8 -7
-54 -15 -102 -71 -420 -102 -970 -76 -1333 15 -199 54 -521 75 -610 9 -36 15
-78 15 -95 l0 -30 -14 30 c-50 105 -149 368 -210 555 -36 110 -66 172 -51 105
41 -184 107 -399 173 -570 20 -49 36 -94 38 -100 1 -5 5 -17 8 -25 3 -8 20
-58 37 -110 17 -52 39 -114 50 -137 11 -24 20 -47 20 -53 0 -5 5 -10 10 -10 6
0 10 -6 10 -12 0 -26 -153 160 -266 323 -56 80 -66 96 -96 152 -7 12 -17 25
-21 28 -4 3 -18 32 -31 63 -13 32 -27 53 -30 48 -9 -16 67 -202 87 -210 4 -2
7 -8 7 -14 0 -17 121 -196 191 -283 35 -44 106 -124 157 -177 50 -53 92 -104
92 -113 0 -15 38 -122 61 -170 26 -56 29 -88 9 -131 -39 -89 -78 -122 -227
-195 -188 -91 -174 -105 18 -19 142 63 177 82 224 122 l42 37 13 -27 c57 -124
90 -300 90 -486 0 -78 -2 -145 -4 -147 -7 -6 -238 9 -331 21 -129 18 -305 66
-427 115 -164 67 -378 195 -494 294 -23 20 -59 50 -79 66 -140 112 -282 254
-292 292 -5 21 11 79 64 233 84 243 120 344 138 385 7 17 16 41 20 55 4 14 18
48 30 75 13 28 25 59 28 70 6 24 107 256 144 335 15 30 27 57 28 60 1 3 8 21
16 40 9 19 24 56 35 82 23 57 39 63 30 10 -8 -47 -36 -253 -36 -266 0 -46 50
156 100 404 19 93 31 144 85 345 26 98 107 351 125 390 5 11 16 40 24 65 15
45 31 87 68 170 65 148 102 227 112 240 7 8 21 32 31 54 25 48 99 128 145 155
42 25 50 26 50 6z m1306 -286 c77 -47 109 -117 98 -214 -7 -61 -44 -122 -94
-154 -23 -15 -24 -15 -17 3 12 32 -11 92 -48 125 -20 17 -41 31 -47 31 -7 0
-3 -7 8 -15 17 -13 16 -14 -14 -4 -22 8 -30 14 -22 19 8 5 2 10 -18 14 -37 9
-62 35 -72 78 l-8 33 -2 -35 -2 -35 -9 30 c-18 61 7 114 66 142 41 18 138 9
181 -18z m-276 -69 c-12 -23 -25 -65 -31 -95 -11 -60 3 -110 44 -153 42 -46
127 -78 111 -43 -4 9 -7 26 -7 39 1 12 -1 22 -3 22 -3 0 -9 -10 -14 -22 -6
-16 -9 -18 -9 -7 -1 25 24 41 53 33 30 -7 30 -8 14 -34 -10 -15 -10 -22 0 -32
16 -16 15 -35 -2 -41 -7 -3 -36 1 -64 9 -62 19 -125 83 -142 144 -14 52 1 127
36 183 32 49 40 47 14 -3z m58 -189 c10 -29 10 -32 -3 -21 -8 7 -15 24 -15 38
0 31 3 27 18 -17z m186 -46 c4 -14 2 -33 -3 -42 -6 -12 -10 -5 -12 29 -4 49 4
56 15 13z m3721 -795 c4 -107 2 -253 -3 -325 l-9 -130 39 -40 c21 -23 38 -45
38 -50 0 -6 -16 -21 -35 -34 -42 -29 -39 -39 5 -16 l31 16 -6 -168 c-8 -224
-13 -277 -28 -265 -7 5 -82 12 -167 16 -85 3 -195 9 -244 12 l-88 7 7 226 7
226 27 29 c14 16 43 36 65 46 38 18 39 17 72 -5 44 -30 120 -40 184 -25 28 7
52 16 55 20 3 4 7 156 9 336 2 181 8 352 12 379 l8 50 7 -55 c4 -30 10 -143
14 -250z m-5798 -217 c-3 -10 -5 -4 -5 12 0 17 2 24 5 18 2 -7 2 -21 0 -30z
m2978 -181 c13 -4 -4 -9 -46 -12 -77 -7 -110 -28 -139 -87 -12 -22 -27 -44
-35 -47 -20 -7 -39 -78 -31 -120 8 -40 37 -65 88 -75 21 -4 37 -17 48 -36 19
-34 60 -45 80 -21 14 18 40 21 40 5 0 -6 -9 -24 -21 -40 -16 -23 -28 -29 -58
-29 -40 0 -63 18 -75 56 -5 15 -18 24 -40 28 -105 20 -151 150 -87 247 16 24
32 56 36 71 4 15 18 39 32 54 24 26 26 26 106 20 45 -4 91 -10 102 -14z m43
-36 c53 -28 83 -72 123 -186 19 -52 23 -87 24 -172 0 -58 -3 -110 -7 -113 -13
-13 -55 23 -62 52 -4 15 -19 45 -32 66 -14 22 -23 46 -20 54 9 23 30 1 55 -58
12 -27 26 -47 31 -44 18 11 10 81 -14 131 -14 27 -29 67 -35 90 -21 81 -116
143 -172 114 -61 -32 -71 -61 -45 -125 33 -79 151 -98 132 -21 -6 24 -11 27
-38 24 -24 -2 -32 2 -39 20 -10 27 7 38 47 28 18 -5 31 -20 44 -52 26 -60 25
-79 -6 -103 -35 -27 -60 -26 -87 2 -12 13 -35 24 -51 25 -38 3 -52 16 -67 59
-13 41 -4 116 18 154 35 59 139 87 201 55z m26 -365 c15 -29 15 -29 -9 -17
-24 11 -31 26 -18 39 10 10 11 9 27 -22z m77 -127 c48 -24 79 -71 79 -120 0
-36 5 -47 26 -61 56 -37 50 -102 -12 -128 -20 -8 -40 -15 -45 -15 -17 0 -9 22
16 42 33 26 32 61 -2 86 -22 16 -27 28 -28 65 0 30 -7 53 -19 66 -37 40 -138
49 -167 15 -6 -8 -28 -18 -49 -24 -54 -15 -86 -44 -106 -98 -22 -60 -34 -74
-34 -40 0 15 4 29 9 33 5 3 7 20 4 38 -7 44 19 105 51 116 13 6 42 12 65 14
22 2 46 9 53 14 30 25 108 23 159 -3z m3703 -36 c-116 -160 -145 -198 -155
-198 -12 0 23 50 117 169 72 91 96 109 38 29z m-3753 -81 c29 -19 34 -29 37
-66 2 -24 10 -54 19 -67 20 -32 10 -70 -25 -87 -33 -17 -57 -12 -99 20 -36 28
-48 53 -38 83 7 23 15 25 39 7 16 -12 17 -16 5 -36 -12 -20 -12 -24 5 -37 45
-33 83 0 72 60 -11 58 -94 109 -141 88 -35 -16 -58 -67 -52 -115 6 -45 53
-101 103 -123 17 -7 37 -20 44 -29 18 -22 104 -65 130 -65 31 0 24 15 -20 44
-46 30 -70 66 -44 66 9 0 32 -14 52 -31 48 -42 126 -77 204 -91 l63 -12 -44
-9 c-63 -13 -244 7 -322 35 -71 26 -160 81 -200 125 -27 28 -49 81 -49 115 0
35 43 110 74 129 46 28 142 26 187 -4z m3316 -302 l0 -80 -7 65 c-4 36 -8 85
-8 110 0 40 1 42 8 15 4 -16 7 -66 7 -110z m-3204 43 c9 -31 4 -32 -23 -3 -23
24 -23 25 -3 25 13 0 23 -8 26 -22z m3968 -25 c-136 -157 -216 -265 -259 -349
-20 -39 -24 -41 -74 -47 -29 -4 -61 -8 -72 -9 -11 -2 -30 12 -49 34 l-30 38
24 26 c32 35 203 173 282 226 49 34 199 122 216 127 1 1 -15 -20 -38 -46z
m-1676 -42 c23 -7 11 -9 -57 -10 -81 -1 -108 6 -90 24 8 8 102 -1 147 -14z
m1092 -276 c79 -131 74 -121 59 -135 -13 -10 -22 3 -59 77 -25 48 -55 97 -67
108 -12 11 -26 28 -32 38 -8 15 -4 15 27 -5 20 -13 52 -50 72 -83z m-3113 79
c22 -21 20 -46 -5 -78 -22 -27 -57 -34 -77 -14 -15 15 -16 63 -2 89 13 23 62
26 84 3z m3285 -248 c29 -37 51 -69 49 -71 -10 -11 -139 133 -148 165 l-9 35
27 -31 c15 -18 51 -62 81 -98z m-3139 59 c6 -8 9 -23 5 -34 -15 -48 -74 -26
-61 23 7 29 36 35 56 11z m3118 -89 c23 -24 42 -50 42 -57 0 -8 14 -22 31 -32
18 -10 29 -20 26 -24 -4 -3 -24 5 -44 19 -49 32 -91 42 -109 27 -18 -15 -18 2
1 27 20 26 19 37 -4 25 -15 -8 -20 -7 -24 8 -5 22 9 51 26 51 7 0 31 -20 55
-44z m-19 -156 c0 -25 -6 -61 -13 -80 -12 -34 -13 -33 -20 49 -5 63 -4 86 6
92 18 12 28 -10 27 -61z m41 30 c0 -13 -1 -13 -10 0 -5 8 -10 22 -10 30 0 13
1 13 10 0 5 -8 10 -22 10 -30z m156 -97 c8 -19 20 -58 26 -87 9 -48 12 -52 34
-48 21 4 24 1 24 -27 0 -28 -2 -31 -25 -25 -15 4 -25 2 -25 -5 0 -6 -9 -11
-19 -11 -17 0 -19 7 -16 83 3 89 -5 117 -34 117 -10 0 -25 -8 -33 -17 -17 -20
-29 -83 -16 -83 4 0 8 8 8 18 0 10 6 26 13 36 17 23 32 7 41 -44 5 -26 4 -31
-3 -20 -6 8 -11 24 -11 35 0 17 -2 17 -17 -5 -9 -14 -20 -27 -23 -30 -3 -3
-11 -21 -17 -40 -10 -34 -10 -34 -18 33 -8 71 0 106 37 152 16 21 23 23 40 14
11 -6 26 -26 34 -46z m67 -43 c-9 -11 -19 -17 -21 -15 -6 6 18 35 29 35 5 0 1
-9 -8 -20z m-116 -92 c-3 -8 -6 -5 -6 6 -1 11 2 17 5 13 3 -3 4 -12 1 -19z"/>
<path d="M773 6814 c-3 -8 0 -21 6 -27 9 -9 11 -8 5 7 -5 13 -4 17 4 12 8 -5
10 -2 6 8 -8 20 -13 20 -21 0z"/>
<path d="M1640 6100 c0 -5 5 -10 10 -10 6 0 10 5 10 10 0 6 -4 10 -10 10 -5 0
-10 -4 -10 -10z"/>
<path d="M1687 6070 c10 -11 19 -20 21 -20 1 0 -2 9 -8 20 -6 11 -15 20 -20
20 -6 0 -2 -9 7 -20z"/>
<path d="M1688 6029 c5 -12 16 -23 25 -25 10 -1 14 3 10 13 -5 12 -7 12 -14 1
-7 -10 -9 -9 -9 4 0 9 -4 20 -10 23 -6 4 -7 -2 -2 -16z"/>
<path d="M2216 6121 c-4 -5 -2 -12 3 -15 5 -4 12 -2 15 3 4 5 2 12 -3 15 -5 4
-12 2 -15 -3z"/>
<path d="M2528 5533 c6 -2 18 -2 25 0 6 3 1 5 -13 5 -14 0 -19 -2 -12 -5z"/>
<path d="M2520 5510 c0 -5 7 -7 15 -4 8 4 15 8 15 10 0 2 -7 4 -15 4 -8 0 -15
-4 -15 -10z"/>
<path d="M2535 5490 c-3 -6 1 -7 9 -4 18 7 21 14 7 14 -6 0 -13 -4 -16 -10z"/>
<path d="M2860 5235 c0 -8 4 -15 10 -15 5 0 7 7 4 15 -4 8 -8 15 -10 15 -2 0
-4 -7 -4 -15z"/>
<path d="M2960 5086 c0 -2 7 -9 15 -16 13 -11 14 -10 9 4 -5 14 -24 23 -24 12z"/>
<path d="M5802 6030 c0 -14 2 -19 5 -12 2 6 2 18 0 25 -3 6 -5 1 -5 -13z"/>
<path d="M4808 6093 c-18 -21 -31 -43 -25 -43 2 0 13 14 25 30 25 33 24 41 0
13z"/>
<path d="M4879 5583 c-13 -16 -12 -17 4 -4 9 7 17 15 17 17 0 8 -8 3 -21 -13z"/>
<path d="M4894 5568 l-19 -23 23 19 c21 18 27 26 19 26 -2 0 -12 -10 -23 -22z"/>
<path d="M4115 5363 c15 -27 37 -57 48 -68 l20 -20 -18 30 c-64 103 -100 146
-50 58z"/>
<path d="M3406 5327 c3 -10 9 -15 12 -12 3 3 0 11 -7 18 -10 9 -11 8 -5 -6z"/>
<path d="M5346 5887 c3 -10 9 -15 12 -12 3 3 0 11 -7 18 -10 9 -11 8 -5 -6z"/>
<path d="M1404 3811 c17 -17 34 -31 39 -31 14 0 -23 39 -48 52 -14 8 -12 2 9
-21z"/>
<path d="M2036 4984 c-4 -9 -1 -23 6 -31 10 -13 14 -13 25 3 9 13 10 21 2 31
-15 17 -26 16 -33 -3z"/>
<path d="M1081 2185 c-1 -88 21 -244 39 -272 10 -16 11 -15 6 7 -2 14 -9 66
-15 115 -6 50 -15 122 -20 160 l-8 70 -2 -80z"/>
<path d="M2768 3406 c23 -27 32 -46 30 -64 -3 -24 -9 -28 -48 -33 -51 -7 -58
-5 -41 14 16 20 3 49 -22 45 -11 -2 -29 -15 -40 -29 -34 -47 -9 -77 83 -95 77
-15 119 -53 123 -113 3 -40 22 -40 43 1 28 54 34 88 23 141 -16 85 -75 149
-152 164 l-32 6 33 -37z m97 -126 l5 -35 -19 40 c-24 49 -26 64 -6 45 8 -9 17
-31 20 -50z"/>
<path d="M2644 3409 l-19 -22 25 13 c13 7 39 13 58 12 19 -1 30 3 27 8 -12 19
-71 11 -91 -11z"/>
<path d="M2765 3340 c-4 -6 -13 -9 -21 -6 -8 3 -14 1 -14 -4 0 -13 37 -13 45
1 4 6 5 13 2 15 -3 3 -8 0 -12 -6z"/>
<path d="M6110 1776 c0 -3 14 -12 30 -21 17 -9 30 -13 30 -11 0 3 -13 12 -30
21 -16 9 -30 13 -30 11z"/>
<path d="M1141 8826 c8 -8 149 -56 163 -55 6 0 -19 11 -56 24 -92 32 -114 38
-107 31z"/>
<path d="M1388 8743 c7 -3 16 -2 19 1 4 3 -2 6 -13 5 -11 0 -14 -3 -6 -6z"/>
<path d="M1480 8715 c19 -7 42 -13 50 -13 8 0 -1 6 -20 13 -19 7 -42 13 -50
13 -8 0 1 -6 20 -13z"/>
<path d="M1558 8693 c7 -3 16 -2 19 1 4 3 -2 6 -13 5 -11 0 -14 -3 -6 -6z"/>
<path d="M1628 8673 c7 -3 16 -2 19 1 4 3 -2 6 -13 5 -11 0 -14 -3 -6 -6z"/>
<path d="M1668 8663 c7 -3 16 -2 19 1 4 3 -2 6 -13 5 -11 0 -14 -3 -6 -6z"/>
<path d="M1745 8641 c11 -4 36 -11 55 -15 24 -4 29 -3 15 3 -11 4 -36 11 -55
15 -24 4 -29 3 -15 -3z"/>
<path d="M1848 8613 c7 -3 16 -2 19 1 4 3 -2 6 -13 5 -11 0 -14 -3 -6 -6z"/>
<path d="M1888 8603 c7 -3 16 -2 19 1 4 3 -2 6 -13 5 -11 0 -14 -3 -6 -6z"/>
<path d="M1928 8593 c7 -3 16 -2 19 1 4 3 -2 6 -13 5 -11 0 -14 -3 -6 -6z"/>
<path d="M1968 8583 c7 -3 16 -2 19 1 4 3 -2 6 -13 5 -11 0 -14 -3 -6 -6z"/>
<path d="M2192 8563 c-48 -23 -32 -27 19 -3 24 11 37 20 29 20 -8 0 -30 -8
-48 -17z"/>
<path d="M2048 8563 c7 -3 16 -2 19 1 4 3 -2 6 -13 5 -11 0 -14 -3 -6 -6z"/>
<path d="M2304 8549 c14 -11 26 -28 27 -37 0 -12 2 -13 6 -4 5 14 -33 62 -50
62 -5 0 2 -9 17 -21z"/>
<path d="M2088 8553 c7 -3 16 -2 19 1 4 3 -2 6 -13 5 -11 0 -14 -3 -6 -6z"/>
<path d="M2128 8543 c7 -3 16 -2 19 1 4 3 -2 6 -13 5 -11 0 -14 -3 -6 -6z"/>
<path d="M2588 8443 c7 -3 16 -2 19 1 4 3 -2 6 -13 5 -11 0 -14 -3 -6 -6z"/>
<path d="M2788 8403 c7 -3 16 -2 19 1 4 3 -2 6 -13 5 -11 0 -14 -3 -6 -6z"/>
<path d="M2998 8363 c6 -2 18 -2 25 0 6 3 1 5 -13 5 -14 0 -19 -2 -12 -5z"/>
<path d="M3048 8353 c6 -2 18 -2 25 0 6 3 1 5 -13 5 -14 0 -19 -2 -12 -5z"/>
<path d="M3108 8343 c6 -2 18 -2 25 0 6 3 1 5 -13 5 -14 0 -19 -2 -12 -5z"/>
<path d="M3178 8333 c7 -3 16 -2 19 1 4 3 -2 6 -13 5 -11 0 -14 -3 -6 -6z"/>
<path d="M3238 8323 c7 -3 16 -2 19 1 4 3 -2 6 -13 5 -11 0 -14 -3 -6 -6z"/>
<path d="M3288 8313 c7 -3 16 -2 19 1 4 3 -2 6 -13 5 -11 0 -14 -3 -6 -6z"/>
<path d="M3358 8303 c7 -3 16 -2 19 1 4 3 -2 6 -13 5 -11 0 -14 -3 -6 -6z"/>
<path d="M3488 8283 c7 -3 16 -2 19 1 4 3 -2 6 -13 5 -11 0 -14 -3 -6 -6z"/>
<path d="M3618 8263 c7 -3 16 -2 19 1 4 3 -2 6 -13 5 -11 0 -14 -3 -6 -6z"/>
<path d="M3895 8250 c-16 -11 -25 -20 -19 -20 11 0 64 39 54 40 -3 0 -18 -9
-35 -20z"/>
<path d="M3678 8253 c7 -3 16 -2 19 1 4 3 -2 6 -13 5 -11 0 -14 -3 -6 -6z"/>
<path d="M4018 8233 c5 -21 7 -23 10 -9 2 10 0 22 -6 28 -6 6 -7 0 -4 -19z"/>
<path d="M3758 8243 c7 -3 16 -2 19 1 4 3 -2 6 -13 5 -11 0 -14 -3 -6 -6z"/>
<path d="M3828 8233 c7 -3 16 -2 19 1 4 3 -2 6 -13 5 -11 0 -14 -3 -6 -6z"/>
<path d="M4138 8193 c7 -3 16 -2 19 1 4 3 -2 6 -13 5 -11 0 -14 -3 -6 -6z"/>
<path d="M4398 8163 c7 -3 16 -2 19 1 4 3 -2 6 -13 5 -11 0 -14 -3 -6 -6z"/>
<path d="M5751 8083 c7 -12 15 -20 18 -17 3 2 -3 12 -13 22 -17 16 -18 16 -5
-5z"/>
<path d="M7317 8013 c-4 -3 -7 -11 -7 -17 0 -6 5 -5 12 2 6 6 9 14 7 17 -3 3
-9 2 -12 -2z"/>
<path d="M2 7340 c0 -14 2 -19 5 -12 2 6 2 18 0 25 -3 6 -5 1 -5 -13z"/>
<path d="M4058 7093 c7 -3 16 -2 19 1 4 3 -2 6 -13 5 -11 0 -14 -3 -6 -6z"/>
<path d="M5071 7084 c-41 -17 -34 -31 8 -16 28 10 30 9 34 -16 3 -21 4 -18 6
11 1 41 0 42 -48 21z"/>
<path d="M4110 7080 c8 -5 26 -10 39 -10 32 0 24 6 -19 14 -25 4 -31 3 -20 -4z"/>
<path d="M4188 7063 c7 -3 16 -2 19 1 4 3 -2 6 -13 5 -11 0 -14 -3 -6 -6z"/>
<path d="M4318 7043 c7 -3 16 -2 19 1 4 3 -2 6 -13 5 -11 0 -14 -3 -6 -6z"/>
<path d="M4658 6753 c6 -2 18 -2 25 0 6 3 1 5 -13 5 -14 0 -19 -2 -12 -5z"/>
<path d="M4498 6743 c27 -5 19 -23 -10 -23 -12 0 -19 -3 -15 -6 11 -11 57 6
57 21 0 10 -9 15 -27 14 -24 -2 -25 -2 -5 -6z"/>
<path d="M4575 6740 l-30 -8 30 0 c17 0 39 3 50 8 l20 9 -20 -1 c-11 0 -33 -4
-50 -8z"/>
<path d="M4368 6733 c12 -2 32 -2 45 0 12 2 2 4 -23 4 -25 0 -35 -2 -22 -4z"/>
<path d="M5051 6524 c0 -11 3 -14 6 -6 3 7 2 16 -1 19 -3 4 -6 -2 -5 -13z"/>
<path d="M6035 4098 l-70 -73 73 70 c67 64 77 75 69 75 -1 0 -34 -33 -72 -72z"/>
<path d="M8380 2934 c0 -22 91 -188 321 -584 l44 -75 3 47 c3 39 -4 60 -42
132 -25 48 -55 99 -65 114 -20 28 -161 246 -220 340 -18 28 -35 52 -37 52 -2
0 -4 -12 -4 -26z"/>
<path d="M8800 2224 c0 -38 9 -72 36 -130 20 -44 52 -122 71 -174 53 -145 52
-144 52 -49 1 73 -3 96 -25 145 -56 125 -103 220 -118 239 -14 19 -15 17 -16
-31z"/>
<path d="M8337 1805 c-5 -27 -10 -60 -13 -72 -5 -25 13 -32 22 -9 3 7 4 40 2
72 l-3 59 -8 -50z"/>
<path d="M7339 1623 c-104 -121 -191 -240 -203 -280 -12 -39 1 -26 40 40 46
76 108 160 188 252 88 103 90 105 83 105 -3 0 -52 -53 -108 -117z"/>
<path d="M6518 1243 c12 -2 30 -2 40 0 9 3 -1 5 -23 4 -22 0 -30 -2 -17 -4z"/>
<path d="M7111 1224 c0 -11 3 -14 6 -6 3 7 2 16 -1 19 -3 4 -6 -2 -5 -13z"/>
<path d="M6515 1144 c22 -15 55 -41 73 -57 17 -17 32 -26 32 -21 0 14 -36 46
-87 78 -55 34 -69 34 -18 0z"/>
<path d="M6420 820 c-20 -6 -21 -8 -5 -8 11 0 29 3 40 8 25 11 -1 11 -35 0z"/>
<path d="M6725 765 c38 -34 102 -82 135 -100 25 -14 8 0 -85 69 -49 37 -72 51
-50 31z"/>
<path d="M8636 675 c44 -44 95 -99 113 -123 l34 -43 -39 16 c-104 45 -296 100
-318 91 -6 -2 -4 -5 5 -5 35 -2 198 -54 286 -92 51 -21 95 -39 99 -39 29 0
-107 154 -199 226 l-62 48 81 -79z"/>
<path d="M6350 702 c30 -11 77 -29 104 -41 27 -12 51 -19 54 -16 9 9 -122 64
-168 70 l-45 6 55 -19z"/>
<path d="M6524 621 c12 -18 109 -22 166 -6 l55 15 -55 -6 c-79 -10 -111 -10
-143 -1 -18 5 -26 4 -23 -2z"/>
<path d="M8388 623 c7 -3 16 -2 19 1 4 3 -2 6 -13 5 -11 0 -14 -3 -6 -6z"/>
<path d="M6821 586 c15 -14 129 -65 129 -58 0 5 -26 21 -59 36 -53 23 -82 33
-70 22z"/>
<path d="M6443 283 c15 -2 39 -2 55 0 15 2 2 4 -28 4 -30 0 -43 -2 -27 -4z"/>
<path d="M6391 186 c10 -9 89 -46 89 -41 0 5 -75 45 -86 45 -4 0 -5 -2 -3 -4z"/>
<path d="M3850 140 c-6 -11 -8 -20 -6 -20 3 0 10 9 16 20 6 11 8 20 6 20 -3 0
-10 -9 -16 -20z"/>
<path d="M6773 133 c9 -2 23 -2 30 0 6 3 -1 5 -18 5 -16 0 -22 -2 -12 -5z"/>
<path d="M6708 113 c7 -3 16 -2 19 1 4 3 -2 6 -13 5 -11 0 -14 -3 -6 -6z"/>
<path d="M3801 60 c-33 -53 -41 -79 -15 -45 19 24 56 95 50 95 -2 0 -18 -23
-35 -50z"/>
<path d="M6628 103 c12 -2 32 -2 45 0 12 2 2 4 -23 4 -25 0 -35 -2 -22 -4z"/>
<path d="M4315 57 c-17 -42 -19 -57 -5 -57 5 0 12 11 16 25 3 14 10 25 14 25
4 0 11 -11 14 -25 4 -14 11 -25 16 -25 11 0 -8 60 -26 79 -12 13 -16 9 -29
-22z"/>
<path d="M3562 31 c-6 -17 -9 -31 -6 -31 7 0 25 52 20 57 -2 2 -8 -10 -14 -26z"/>
</g>
</svg>
